<mxfile host="app.diagrams.net" agent="Mozilla/5.0 (Windows NT 10.0; Win64; x64) AppleWebKit/537.36 (KHTML, like Gecko) Chrome/135.0.0.0 Safari/537.36" version="26.3.0">
  <diagram name="Página-1" id="OD57Y9_Z_m-zgy_F-Qcm">
    <mxGraphModel dx="2253" dy="777" grid="1" gridSize="10" guides="1" tooltips="1" connect="1" arrows="1" fold="1" page="1" pageScale="1" pageWidth="827" pageHeight="1169" math="0" shadow="0">
      <root>
        <mxCell id="0" />
        <mxCell id="1" parent="0" />
        <mxCell id="qahJuwpl1EwZPZ-2IfbC-1" value="Fornecedor" style="rounded=1;whiteSpace=wrap;html=1;" vertex="1" parent="1">
          <mxGeometry x="480" y="680" width="90" height="40" as="geometry" />
        </mxCell>
        <mxCell id="qahJuwpl1EwZPZ-2IfbC-2" value="" style="endArrow=none;html=1;rounded=0;exitX=0.5;exitY=0;exitDx=0;exitDy=0;entryX=0.5;entryY=1;entryDx=0;entryDy=0;" edge="1" parent="1" source="qahJuwpl1EwZPZ-2IfbC-1" target="qahJuwpl1EwZPZ-2IfbC-3">
          <mxGeometry width="50" height="50" relative="1" as="geometry">
            <mxPoint x="400" y="430" as="sourcePoint" />
            <mxPoint x="495" y="470" as="targetPoint" />
          </mxGeometry>
        </mxCell>
        <mxCell id="qahJuwpl1EwZPZ-2IfbC-3" value="Fornece" style="rhombus;whiteSpace=wrap;html=1;" vertex="1" parent="1">
          <mxGeometry x="492.5" y="550" width="65" height="60" as="geometry" />
        </mxCell>
        <mxCell id="qahJuwpl1EwZPZ-2IfbC-5" value="" style="endArrow=none;html=1;rounded=0;exitX=0.5;exitY=0;exitDx=0;exitDy=0;entryX=0.5;entryY=1;entryDx=0;entryDy=0;" edge="1" parent="1" source="qahJuwpl1EwZPZ-2IfbC-3" target="qahJuwpl1EwZPZ-2IfbC-10">
          <mxGeometry width="50" height="50" relative="1" as="geometry">
            <mxPoint x="400" y="520" as="sourcePoint" />
            <mxPoint x="523" y="450" as="targetPoint" />
          </mxGeometry>
        </mxCell>
        <mxCell id="qahJuwpl1EwZPZ-2IfbC-10" value="Fábrica" style="rounded=1;whiteSpace=wrap;html=1;" vertex="1" parent="1">
          <mxGeometry x="480" y="440" width="90" height="40" as="geometry" />
        </mxCell>
        <mxCell id="qahJuwpl1EwZPZ-2IfbC-11" value="Possui" style="rhombus;whiteSpace=wrap;html=1;" vertex="1" parent="1">
          <mxGeometry x="640" y="430" width="65" height="60" as="geometry" />
        </mxCell>
        <mxCell id="qahJuwpl1EwZPZ-2IfbC-15" value="" style="endArrow=none;html=1;rounded=0;exitX=0;exitY=0.5;exitDx=0;exitDy=0;entryX=1;entryY=0.5;entryDx=0;entryDy=0;" edge="1" parent="1" source="qahJuwpl1EwZPZ-2IfbC-11" target="qahJuwpl1EwZPZ-2IfbC-10">
          <mxGeometry width="50" height="50" relative="1" as="geometry">
            <mxPoint x="535" y="680" as="sourcePoint" />
            <mxPoint x="535" y="620" as="targetPoint" />
          </mxGeometry>
        </mxCell>
        <mxCell id="qahJuwpl1EwZPZ-2IfbC-18" value="Funcionário" style="rounded=1;whiteSpace=wrap;html=1;" vertex="1" parent="1">
          <mxGeometry x="790" y="440" width="90" height="40" as="geometry" />
        </mxCell>
        <mxCell id="qahJuwpl1EwZPZ-2IfbC-19" value="" style="endArrow=none;html=1;rounded=0;entryX=1;entryY=0.5;entryDx=0;entryDy=0;exitX=0;exitY=0.5;exitDx=0;exitDy=0;" edge="1" parent="1" source="qahJuwpl1EwZPZ-2IfbC-18" target="qahJuwpl1EwZPZ-2IfbC-11">
          <mxGeometry width="50" height="50" relative="1" as="geometry">
            <mxPoint x="780" y="460" as="sourcePoint" />
            <mxPoint x="535" y="490" as="targetPoint" />
          </mxGeometry>
        </mxCell>
        <mxCell id="qahJuwpl1EwZPZ-2IfbC-20" value="Controla" style="rhombus;whiteSpace=wrap;html=1;" vertex="1" parent="1">
          <mxGeometry x="802.5" y="330" width="65" height="60" as="geometry" />
        </mxCell>
        <mxCell id="qahJuwpl1EwZPZ-2IfbC-23" value="" style="endArrow=none;html=1;rounded=0;exitX=0.5;exitY=0;exitDx=0;exitDy=0;entryX=0.5;entryY=1;entryDx=0;entryDy=0;" edge="1" parent="1" source="qahJuwpl1EwZPZ-2IfbC-18" target="qahJuwpl1EwZPZ-2IfbC-20">
          <mxGeometry width="50" height="50" relative="1" as="geometry">
            <mxPoint x="400" y="440" as="sourcePoint" />
            <mxPoint x="450" y="390" as="targetPoint" />
          </mxGeometry>
        </mxCell>
        <mxCell id="qahJuwpl1EwZPZ-2IfbC-25" value="Faz" style="rhombus;whiteSpace=wrap;html=1;" vertex="1" parent="1">
          <mxGeometry x="492.5" y="330" width="65" height="60" as="geometry" />
        </mxCell>
        <mxCell id="qahJuwpl1EwZPZ-2IfbC-26" value="" style="endArrow=none;html=1;rounded=0;entryX=0.5;entryY=1;entryDx=0;entryDy=0;exitX=0.5;exitY=0;exitDx=0;exitDy=0;" edge="1" parent="1" source="qahJuwpl1EwZPZ-2IfbC-10" target="qahJuwpl1EwZPZ-2IfbC-25">
          <mxGeometry width="50" height="50" relative="1" as="geometry">
            <mxPoint x="400" y="440" as="sourcePoint" />
            <mxPoint x="450" y="390" as="targetPoint" />
          </mxGeometry>
        </mxCell>
        <mxCell id="qahJuwpl1EwZPZ-2IfbC-27" value="Armazém" style="rounded=1;whiteSpace=wrap;html=1;" vertex="1" parent="1">
          <mxGeometry x="790" y="240" width="90" height="40" as="geometry" />
        </mxCell>
        <mxCell id="qahJuwpl1EwZPZ-2IfbC-28" value="" style="endArrow=none;html=1;rounded=0;entryX=0.5;entryY=1;entryDx=0;entryDy=0;exitX=0.5;exitY=0;exitDx=0;exitDy=0;" edge="1" parent="1" source="qahJuwpl1EwZPZ-2IfbC-20" target="qahJuwpl1EwZPZ-2IfbC-27">
          <mxGeometry width="50" height="50" relative="1" as="geometry">
            <mxPoint x="400" y="440" as="sourcePoint" />
            <mxPoint x="450" y="390" as="targetPoint" />
          </mxGeometry>
        </mxCell>
        <mxCell id="qahJuwpl1EwZPZ-2IfbC-30" value="Retira" style="rhombus;whiteSpace=wrap;html=1;" vertex="1" parent="1">
          <mxGeometry x="640" y="230" width="65" height="60" as="geometry" />
        </mxCell>
        <mxCell id="qahJuwpl1EwZPZ-2IfbC-31" value="" style="endArrow=none;html=1;rounded=0;entryX=1;entryY=0.5;entryDx=0;entryDy=0;exitX=0;exitY=0.5;exitDx=0;exitDy=0;" edge="1" parent="1" source="qahJuwpl1EwZPZ-2IfbC-27" target="qahJuwpl1EwZPZ-2IfbC-30">
          <mxGeometry width="50" height="50" relative="1" as="geometry">
            <mxPoint x="400" y="440" as="sourcePoint" />
            <mxPoint x="450" y="390" as="targetPoint" />
          </mxGeometry>
        </mxCell>
        <mxCell id="qahJuwpl1EwZPZ-2IfbC-33" value="Produto" style="rounded=1;whiteSpace=wrap;html=1;" vertex="1" parent="1">
          <mxGeometry x="480" y="240" width="90" height="40" as="geometry" />
        </mxCell>
        <mxCell id="qahJuwpl1EwZPZ-2IfbC-34" value="" style="endArrow=none;html=1;rounded=0;entryX=1;entryY=0.5;entryDx=0;entryDy=0;exitX=0;exitY=0.5;exitDx=0;exitDy=0;" edge="1" parent="1" source="qahJuwpl1EwZPZ-2IfbC-30" target="qahJuwpl1EwZPZ-2IfbC-33">
          <mxGeometry width="50" height="50" relative="1" as="geometry">
            <mxPoint x="400" y="440" as="sourcePoint" />
            <mxPoint x="450" y="390" as="targetPoint" />
          </mxGeometry>
        </mxCell>
        <mxCell id="qahJuwpl1EwZPZ-2IfbC-35" value="" style="endArrow=none;html=1;rounded=0;entryX=0.5;entryY=1;entryDx=0;entryDy=0;exitX=0.5;exitY=0;exitDx=0;exitDy=0;" edge="1" parent="1" source="qahJuwpl1EwZPZ-2IfbC-25" target="qahJuwpl1EwZPZ-2IfbC-33">
          <mxGeometry width="50" height="50" relative="1" as="geometry">
            <mxPoint x="400" y="440" as="sourcePoint" />
            <mxPoint x="450" y="390" as="targetPoint" />
          </mxGeometry>
        </mxCell>
        <mxCell id="qahJuwpl1EwZPZ-2IfbC-36" value="Pedido" style="rounded=1;whiteSpace=wrap;html=1;" vertex="1" parent="1">
          <mxGeometry x="200" y="240" width="90" height="40" as="geometry" />
        </mxCell>
        <mxCell id="qahJuwpl1EwZPZ-2IfbC-37" value="Extrai" style="rhombus;whiteSpace=wrap;html=1;" vertex="1" parent="1">
          <mxGeometry x="360" y="230" width="65" height="60" as="geometry" />
        </mxCell>
        <mxCell id="qahJuwpl1EwZPZ-2IfbC-38" value="" style="endArrow=none;html=1;rounded=0;exitX=1;exitY=0.5;exitDx=0;exitDy=0;entryX=0;entryY=0.5;entryDx=0;entryDy=0;" edge="1" parent="1" source="qahJuwpl1EwZPZ-2IfbC-36" target="qahJuwpl1EwZPZ-2IfbC-37">
          <mxGeometry width="50" height="50" relative="1" as="geometry">
            <mxPoint x="400" y="440" as="sourcePoint" />
            <mxPoint x="450" y="390" as="targetPoint" />
          </mxGeometry>
        </mxCell>
        <mxCell id="qahJuwpl1EwZPZ-2IfbC-39" value="" style="endArrow=none;html=1;rounded=0;entryX=0;entryY=0.5;entryDx=0;entryDy=0;exitX=1;exitY=0.5;exitDx=0;exitDy=0;" edge="1" parent="1" source="qahJuwpl1EwZPZ-2IfbC-37" target="qahJuwpl1EwZPZ-2IfbC-33">
          <mxGeometry width="50" height="50" relative="1" as="geometry">
            <mxPoint x="400" y="440" as="sourcePoint" />
            <mxPoint x="450" y="390" as="targetPoint" />
          </mxGeometry>
        </mxCell>
        <mxCell id="qahJuwpl1EwZPZ-2IfbC-40" value="" style="endArrow=none;html=1;rounded=0;exitX=1;exitY=0.5;exitDx=0;exitDy=0;entryX=0;entryY=0.5;entryDx=0;entryDy=0;" edge="1" parent="1" source="qahJuwpl1EwZPZ-2IfbC-43" target="qahJuwpl1EwZPZ-2IfbC-36">
          <mxGeometry width="50" height="50" relative="1" as="geometry">
            <mxPoint x="400" y="440" as="sourcePoint" />
            <mxPoint x="450" y="390" as="targetPoint" />
          </mxGeometry>
        </mxCell>
        <mxCell id="qahJuwpl1EwZPZ-2IfbC-41" value="Distribuidora" style="rounded=1;whiteSpace=wrap;html=1;" vertex="1" parent="1">
          <mxGeometry x="-80" y="240" width="90" height="40" as="geometry" />
        </mxCell>
        <mxCell id="qahJuwpl1EwZPZ-2IfbC-43" value="Solicita" style="rhombus;whiteSpace=wrap;html=1;" vertex="1" parent="1">
          <mxGeometry x="70" y="230" width="65" height="60" as="geometry" />
        </mxCell>
        <mxCell id="qahJuwpl1EwZPZ-2IfbC-44" value="" style="endArrow=none;html=1;rounded=0;exitX=1;exitY=0.5;exitDx=0;exitDy=0;entryX=0;entryY=0.5;entryDx=0;entryDy=0;" edge="1" parent="1" source="qahJuwpl1EwZPZ-2IfbC-41" target="qahJuwpl1EwZPZ-2IfbC-43">
          <mxGeometry width="50" height="50" relative="1" as="geometry">
            <mxPoint x="400" y="440" as="sourcePoint" />
            <mxPoint x="450" y="390" as="targetPoint" />
          </mxGeometry>
        </mxCell>
        <mxCell id="qahJuwpl1EwZPZ-2IfbC-45" value="Envia" style="rhombus;whiteSpace=wrap;html=1;" vertex="1" parent="1">
          <mxGeometry x="-67.5" y="340" width="65" height="60" as="geometry" />
        </mxCell>
        <mxCell id="qahJuwpl1EwZPZ-2IfbC-46" value="" style="endArrow=none;html=1;rounded=0;exitX=0.5;exitY=1;exitDx=0;exitDy=0;entryX=0.5;entryY=0;entryDx=0;entryDy=0;" edge="1" parent="1" source="qahJuwpl1EwZPZ-2IfbC-41" target="qahJuwpl1EwZPZ-2IfbC-45">
          <mxGeometry width="50" height="50" relative="1" as="geometry">
            <mxPoint x="400" y="440" as="sourcePoint" />
            <mxPoint x="450" y="390" as="targetPoint" />
          </mxGeometry>
        </mxCell>
        <mxCell id="qahJuwpl1EwZPZ-2IfbC-47" value="Cliente" style="rounded=1;whiteSpace=wrap;html=1;" vertex="1" parent="1">
          <mxGeometry x="-80" y="470" width="90" height="40" as="geometry" />
        </mxCell>
        <mxCell id="qahJuwpl1EwZPZ-2IfbC-48" value="" style="endArrow=none;html=1;rounded=0;exitX=0.5;exitY=0;exitDx=0;exitDy=0;entryX=0.5;entryY=1;entryDx=0;entryDy=0;" edge="1" parent="1" source="qahJuwpl1EwZPZ-2IfbC-47" target="qahJuwpl1EwZPZ-2IfbC-45">
          <mxGeometry width="50" height="50" relative="1" as="geometry">
            <mxPoint x="400" y="440" as="sourcePoint" />
            <mxPoint x="450" y="390" as="targetPoint" />
          </mxGeometry>
        </mxCell>
        <mxCell id="qahJuwpl1EwZPZ-2IfbC-49" value="Transporte" style="rounded=1;whiteSpace=wrap;html=1;" vertex="1" parent="1">
          <mxGeometry x="200" y="470" width="90" height="40" as="geometry" />
        </mxCell>
        <mxCell id="qahJuwpl1EwZPZ-2IfbC-50" value="Solicita" style="rhombus;whiteSpace=wrap;html=1;" vertex="1" parent="1">
          <mxGeometry x="212.5" y="340" width="65" height="60" as="geometry" />
        </mxCell>
        <mxCell id="qahJuwpl1EwZPZ-2IfbC-51" value="Envia" style="rhombus;whiteSpace=wrap;html=1;" vertex="1" parent="1">
          <mxGeometry x="70" y="460" width="65" height="60" as="geometry" />
        </mxCell>
        <mxCell id="qahJuwpl1EwZPZ-2IfbC-52" value="" style="endArrow=none;html=1;rounded=0;exitX=0.5;exitY=1;exitDx=0;exitDy=0;entryX=0.5;entryY=0;entryDx=0;entryDy=0;" edge="1" parent="1" source="qahJuwpl1EwZPZ-2IfbC-36" target="qahJuwpl1EwZPZ-2IfbC-50">
          <mxGeometry width="50" height="50" relative="1" as="geometry">
            <mxPoint x="400" y="440" as="sourcePoint" />
            <mxPoint x="450" y="390" as="targetPoint" />
          </mxGeometry>
        </mxCell>
        <mxCell id="qahJuwpl1EwZPZ-2IfbC-53" value="" style="endArrow=none;html=1;rounded=0;exitX=0.5;exitY=1;exitDx=0;exitDy=0;entryX=0.5;entryY=0;entryDx=0;entryDy=0;" edge="1" parent="1" source="qahJuwpl1EwZPZ-2IfbC-50" target="qahJuwpl1EwZPZ-2IfbC-49">
          <mxGeometry width="50" height="50" relative="1" as="geometry">
            <mxPoint x="400" y="440" as="sourcePoint" />
            <mxPoint x="450" y="390" as="targetPoint" />
          </mxGeometry>
        </mxCell>
        <mxCell id="qahJuwpl1EwZPZ-2IfbC-54" value="" style="endArrow=none;html=1;rounded=0;exitX=1;exitY=0.5;exitDx=0;exitDy=0;entryX=0;entryY=0.5;entryDx=0;entryDy=0;" edge="1" parent="1" source="qahJuwpl1EwZPZ-2IfbC-47" target="qahJuwpl1EwZPZ-2IfbC-51">
          <mxGeometry width="50" height="50" relative="1" as="geometry">
            <mxPoint x="400" y="440" as="sourcePoint" />
            <mxPoint x="450" y="390" as="targetPoint" />
          </mxGeometry>
        </mxCell>
        <mxCell id="qahJuwpl1EwZPZ-2IfbC-55" value="" style="endArrow=none;html=1;rounded=0;exitX=1;exitY=0.5;exitDx=0;exitDy=0;entryX=0;entryY=0.5;entryDx=0;entryDy=0;" edge="1" parent="1" source="qahJuwpl1EwZPZ-2IfbC-51" target="qahJuwpl1EwZPZ-2IfbC-49">
          <mxGeometry width="50" height="50" relative="1" as="geometry">
            <mxPoint x="400" y="440" as="sourcePoint" />
            <mxPoint x="450" y="390" as="targetPoint" />
          </mxGeometry>
        </mxCell>
        <mxCell id="qahJuwpl1EwZPZ-2IfbC-56" value="id_fornecedor" style="ellipse;whiteSpace=wrap;html=1;align=center;fontStyle=4;" vertex="1" parent="1">
          <mxGeometry x="360" y="740" width="97.5" height="50" as="geometry" />
        </mxCell>
        <mxCell id="qahJuwpl1EwZPZ-2IfbC-57" value="" style="endArrow=none;html=1;rounded=0;entryX=0;entryY=1;entryDx=0;entryDy=0;exitX=0.5;exitY=0;exitDx=0;exitDy=0;" edge="1" parent="1" source="qahJuwpl1EwZPZ-2IfbC-56" target="qahJuwpl1EwZPZ-2IfbC-1">
          <mxGeometry width="50" height="50" relative="1" as="geometry">
            <mxPoint x="400" y="540" as="sourcePoint" />
            <mxPoint x="450" y="490" as="targetPoint" />
          </mxGeometry>
        </mxCell>
        <mxCell id="qahJuwpl1EwZPZ-2IfbC-61" value="nome" style="ellipse;whiteSpace=wrap;html=1;align=center;" vertex="1" parent="1">
          <mxGeometry x="470" y="765" width="50" height="30" as="geometry" />
        </mxCell>
        <mxCell id="qahJuwpl1EwZPZ-2IfbC-63" value="CNPJ" style="ellipse;whiteSpace=wrap;html=1;align=center;" vertex="1" parent="1">
          <mxGeometry x="530" y="770" width="60" height="25" as="geometry" />
        </mxCell>
        <mxCell id="qahJuwpl1EwZPZ-2IfbC-64" value="tipo_material" style="ellipse;whiteSpace=wrap;html=1;align=center;" vertex="1" parent="1">
          <mxGeometry x="600" y="755" width="80" height="40" as="geometry" />
        </mxCell>
        <mxCell id="qahJuwpl1EwZPZ-2IfbC-65" value="" style="endArrow=none;html=1;rounded=0;exitX=0.5;exitY=0;exitDx=0;exitDy=0;entryX=0.25;entryY=1;entryDx=0;entryDy=0;" edge="1" parent="1" source="qahJuwpl1EwZPZ-2IfbC-61" target="qahJuwpl1EwZPZ-2IfbC-1">
          <mxGeometry width="50" height="50" relative="1" as="geometry">
            <mxPoint x="400" y="640" as="sourcePoint" />
            <mxPoint x="450" y="590" as="targetPoint" />
          </mxGeometry>
        </mxCell>
        <mxCell id="qahJuwpl1EwZPZ-2IfbC-66" value="" style="endArrow=none;html=1;rounded=0;exitX=0.5;exitY=0;exitDx=0;exitDy=0;entryX=0.6;entryY=1;entryDx=0;entryDy=0;entryPerimeter=0;" edge="1" parent="1" source="qahJuwpl1EwZPZ-2IfbC-63" target="qahJuwpl1EwZPZ-2IfbC-1">
          <mxGeometry width="50" height="50" relative="1" as="geometry">
            <mxPoint x="400" y="640" as="sourcePoint" />
            <mxPoint x="450" y="590" as="targetPoint" />
          </mxGeometry>
        </mxCell>
        <mxCell id="qahJuwpl1EwZPZ-2IfbC-67" value="" style="endArrow=none;html=1;rounded=0;exitX=0.5;exitY=0;exitDx=0;exitDy=0;entryX=1;entryY=1;entryDx=0;entryDy=0;" edge="1" parent="1" source="qahJuwpl1EwZPZ-2IfbC-64" target="qahJuwpl1EwZPZ-2IfbC-1">
          <mxGeometry width="50" height="50" relative="1" as="geometry">
            <mxPoint x="400" y="640" as="sourcePoint" />
            <mxPoint x="450" y="590" as="targetPoint" />
          </mxGeometry>
        </mxCell>
        <mxCell id="qahJuwpl1EwZPZ-2IfbC-68" value="id_fabrica" style="ellipse;whiteSpace=wrap;html=1;align=center;fontStyle=4;" vertex="1" parent="1">
          <mxGeometry x="400" y="390" width="80" height="40" as="geometry" />
        </mxCell>
        <mxCell id="qahJuwpl1EwZPZ-2IfbC-69" value="nome" style="ellipse;whiteSpace=wrap;html=1;align=center;" vertex="1" parent="1">
          <mxGeometry x="417.5" y="490" width="40" height="30" as="geometry" />
        </mxCell>
        <mxCell id="qahJuwpl1EwZPZ-2IfbC-70" value="endereco" style="ellipse;whiteSpace=wrap;html=1;align=center;" vertex="1" parent="1">
          <mxGeometry x="580" y="500" width="50" height="30" as="geometry" />
        </mxCell>
        <mxCell id="qahJuwpl1EwZPZ-2IfbC-72" value="rua" style="ellipse;whiteSpace=wrap;html=1;align=center;" vertex="1" parent="1">
          <mxGeometry x="580" y="585" width="40" height="25" as="geometry" />
        </mxCell>
        <mxCell id="qahJuwpl1EwZPZ-2IfbC-73" value="num" style="ellipse;whiteSpace=wrap;html=1;align=center;" vertex="1" parent="1">
          <mxGeometry x="635" y="590" width="40" height="20" as="geometry" />
        </mxCell>
        <mxCell id="qahJuwpl1EwZPZ-2IfbC-74" value="cidade" style="ellipse;whiteSpace=wrap;html=1;align=center;" vertex="1" parent="1">
          <mxGeometry x="690" y="567.5" width="40" height="25" as="geometry" />
        </mxCell>
        <mxCell id="qahJuwpl1EwZPZ-2IfbC-76" value="estado" style="ellipse;whiteSpace=wrap;html=1;align=center;" vertex="1" parent="1">
          <mxGeometry x="705" y="530" width="55" height="20" as="geometry" />
        </mxCell>
        <mxCell id="qahJuwpl1EwZPZ-2IfbC-77" value="CEP" style="ellipse;whiteSpace=wrap;html=1;align=center;" vertex="1" parent="1">
          <mxGeometry x="720" y="495" width="50" height="20" as="geometry" />
        </mxCell>
        <mxCell id="qahJuwpl1EwZPZ-2IfbC-82" value="" style="endArrow=none;html=1;rounded=0;exitX=0;exitY=0.75;exitDx=0;exitDy=0;entryX=1;entryY=0;entryDx=0;entryDy=0;" edge="1" parent="1" source="qahJuwpl1EwZPZ-2IfbC-10" target="qahJuwpl1EwZPZ-2IfbC-69">
          <mxGeometry width="50" height="50" relative="1" as="geometry">
            <mxPoint x="400" y="540" as="sourcePoint" />
            <mxPoint x="450" y="490" as="targetPoint" />
          </mxGeometry>
        </mxCell>
        <mxCell id="qahJuwpl1EwZPZ-2IfbC-87" value="" style="endArrow=none;html=1;rounded=0;exitX=1;exitY=1;exitDx=0;exitDy=0;entryX=0.189;entryY=0;entryDx=0;entryDy=0;entryPerimeter=0;" edge="1" parent="1" source="qahJuwpl1EwZPZ-2IfbC-68" target="qahJuwpl1EwZPZ-2IfbC-10">
          <mxGeometry width="50" height="50" relative="1" as="geometry">
            <mxPoint x="550" y="430" as="sourcePoint" />
            <mxPoint x="600" y="380" as="targetPoint" />
          </mxGeometry>
        </mxCell>
        <mxCell id="qahJuwpl1EwZPZ-2IfbC-88" value="" style="endArrow=none;html=1;rounded=0;exitX=0.75;exitY=1;exitDx=0;exitDy=0;entryX=0.32;entryY=0.033;entryDx=0;entryDy=0;entryPerimeter=0;" edge="1" parent="1" source="qahJuwpl1EwZPZ-2IfbC-10" target="qahJuwpl1EwZPZ-2IfbC-70">
          <mxGeometry width="50" height="50" relative="1" as="geometry">
            <mxPoint x="580" y="570" as="sourcePoint" />
            <mxPoint x="580" y="500" as="targetPoint" />
          </mxGeometry>
        </mxCell>
        <mxCell id="qahJuwpl1EwZPZ-2IfbC-89" value="" style="endArrow=none;html=1;rounded=0;entryX=0.5;entryY=1;entryDx=0;entryDy=0;exitX=0.5;exitY=0;exitDx=0;exitDy=0;" edge="1" parent="1" source="qahJuwpl1EwZPZ-2IfbC-72" target="qahJuwpl1EwZPZ-2IfbC-70">
          <mxGeometry width="50" height="50" relative="1" as="geometry">
            <mxPoint x="600" y="560" as="sourcePoint" />
            <mxPoint x="630" y="520" as="targetPoint" />
          </mxGeometry>
        </mxCell>
        <mxCell id="qahJuwpl1EwZPZ-2IfbC-91" value="" style="endArrow=none;html=1;rounded=0;exitX=0;exitY=0;exitDx=0;exitDy=0;entryX=1;entryY=1;entryDx=0;entryDy=0;" edge="1" parent="1" source="qahJuwpl1EwZPZ-2IfbC-74" target="qahJuwpl1EwZPZ-2IfbC-70">
          <mxGeometry width="50" height="50" relative="1" as="geometry">
            <mxPoint x="400" y="540" as="sourcePoint" />
            <mxPoint x="450" y="490" as="targetPoint" />
          </mxGeometry>
        </mxCell>
        <mxCell id="qahJuwpl1EwZPZ-2IfbC-92" value="" style="endArrow=none;html=1;rounded=0;exitX=1;exitY=0.5;exitDx=0;exitDy=0;entryX=0;entryY=0.5;entryDx=0;entryDy=0;" edge="1" parent="1" source="qahJuwpl1EwZPZ-2IfbC-70" target="qahJuwpl1EwZPZ-2IfbC-76">
          <mxGeometry width="50" height="50" relative="1" as="geometry">
            <mxPoint x="750" y="650" as="sourcePoint" />
            <mxPoint x="800" y="600" as="targetPoint" />
          </mxGeometry>
        </mxCell>
        <mxCell id="qahJuwpl1EwZPZ-2IfbC-93" value="" style="endArrow=none;html=1;rounded=0;exitX=1;exitY=0.233;exitDx=0;exitDy=0;exitPerimeter=0;entryX=0;entryY=0.5;entryDx=0;entryDy=0;" edge="1" parent="1" source="qahJuwpl1EwZPZ-2IfbC-70" target="qahJuwpl1EwZPZ-2IfbC-77">
          <mxGeometry width="50" height="50" relative="1" as="geometry">
            <mxPoint x="820" y="630" as="sourcePoint" />
            <mxPoint x="870" y="580" as="targetPoint" />
          </mxGeometry>
        </mxCell>
        <mxCell id="qahJuwpl1EwZPZ-2IfbC-94" value="" style="endArrow=none;html=1;rounded=0;exitX=0.72;exitY=1.067;exitDx=0;exitDy=0;exitPerimeter=0;entryX=0;entryY=0;entryDx=0;entryDy=0;" edge="1" parent="1" source="qahJuwpl1EwZPZ-2IfbC-70" target="qahJuwpl1EwZPZ-2IfbC-73">
          <mxGeometry width="50" height="50" relative="1" as="geometry">
            <mxPoint x="740" y="730" as="sourcePoint" />
            <mxPoint x="790" y="680" as="targetPoint" />
          </mxGeometry>
        </mxCell>
        <mxCell id="qahJuwpl1EwZPZ-2IfbC-96" value="capacidade_producao" style="ellipse;whiteSpace=wrap;html=1;align=center;" vertex="1" parent="1">
          <mxGeometry x="555" y="370" width="150" height="30" as="geometry" />
        </mxCell>
        <mxCell id="qahJuwpl1EwZPZ-2IfbC-97" value="" style="endArrow=none;html=1;rounded=0;entryX=0.46;entryY=1.1;entryDx=0;entryDy=0;entryPerimeter=0;exitX=1;exitY=0;exitDx=0;exitDy=0;" edge="1" parent="1" source="qahJuwpl1EwZPZ-2IfbC-10" target="qahJuwpl1EwZPZ-2IfbC-96">
          <mxGeometry width="50" height="50" relative="1" as="geometry">
            <mxPoint x="410" y="590" as="sourcePoint" />
            <mxPoint x="460" y="540" as="targetPoint" />
          </mxGeometry>
        </mxCell>
        <mxCell id="qahJuwpl1EwZPZ-2IfbC-99" value="nome" style="ellipse;whiteSpace=wrap;html=1;align=center;" vertex="1" parent="1">
          <mxGeometry x="915" y="500" width="50" height="25" as="geometry" />
        </mxCell>
        <mxCell id="qahJuwpl1EwZPZ-2IfbC-100" value="cargo" style="ellipse;whiteSpace=wrap;html=1;align=center;" vertex="1" parent="1">
          <mxGeometry x="740" y="400" width="60" height="30" as="geometry" />
        </mxCell>
        <mxCell id="qahJuwpl1EwZPZ-2IfbC-102" value="CPF" style="ellipse;whiteSpace=wrap;html=1;align=center;" vertex="1" parent="1">
          <mxGeometry x="915" y="450" width="40" height="20" as="geometry" />
        </mxCell>
        <mxCell id="qahJuwpl1EwZPZ-2IfbC-103" value="id_armazem" style="ellipse;whiteSpace=wrap;html=1;align=center;" vertex="1" parent="1">
          <mxGeometry x="875" y="380" width="105" height="40" as="geometry" />
        </mxCell>
        <mxCell id="qahJuwpl1EwZPZ-2IfbC-104" value="" style="endArrow=none;html=1;rounded=0;exitX=0.5;exitY=0;exitDx=0;exitDy=0;entryX=0.5;entryY=1;entryDx=0;entryDy=0;" edge="1" parent="1" source="qahJuwpl1EwZPZ-2IfbC-119" target="qahJuwpl1EwZPZ-2IfbC-18">
          <mxGeometry width="50" height="50" relative="1" as="geometry">
            <mxPoint x="846.9899999999998" y="513" as="sourcePoint" />
            <mxPoint x="820" y="500" as="targetPoint" />
          </mxGeometry>
        </mxCell>
        <mxCell id="qahJuwpl1EwZPZ-2IfbC-105" value="" style="endArrow=none;html=1;rounded=0;exitX=1;exitY=0.5;exitDx=0;exitDy=0;entryX=0;entryY=0.5;entryDx=0;entryDy=0;" edge="1" parent="1" source="qahJuwpl1EwZPZ-2IfbC-18" target="qahJuwpl1EwZPZ-2IfbC-102">
          <mxGeometry width="50" height="50" relative="1" as="geometry">
            <mxPoint x="920" y="620" as="sourcePoint" />
            <mxPoint x="970" y="570" as="targetPoint" />
          </mxGeometry>
        </mxCell>
        <mxCell id="qahJuwpl1EwZPZ-2IfbC-106" value="" style="endArrow=none;html=1;rounded=0;exitX=1;exitY=0.5;exitDx=0;exitDy=0;entryX=0.25;entryY=0;entryDx=0;entryDy=0;" edge="1" parent="1" source="qahJuwpl1EwZPZ-2IfbC-100" target="qahJuwpl1EwZPZ-2IfbC-18">
          <mxGeometry width="50" height="50" relative="1" as="geometry">
            <mxPoint x="870" y="620" as="sourcePoint" />
            <mxPoint x="920" y="570" as="targetPoint" />
          </mxGeometry>
        </mxCell>
        <mxCell id="qahJuwpl1EwZPZ-2IfbC-107" value="" style="endArrow=none;html=1;rounded=0;exitX=0.75;exitY=0;exitDx=0;exitDy=0;entryX=0.222;entryY=0.933;entryDx=0;entryDy=0;entryPerimeter=0;" edge="1" parent="1" source="qahJuwpl1EwZPZ-2IfbC-18" target="qahJuwpl1EwZPZ-2IfbC-103">
          <mxGeometry width="50" height="50" relative="1" as="geometry">
            <mxPoint x="870" y="620" as="sourcePoint" />
            <mxPoint x="920" y="570" as="targetPoint" />
          </mxGeometry>
        </mxCell>
        <mxCell id="qahJuwpl1EwZPZ-2IfbC-108" value="" style="endArrow=none;html=1;rounded=0;exitX=1;exitY=0.75;exitDx=0;exitDy=0;entryX=0;entryY=0;entryDx=0;entryDy=0;" edge="1" parent="1" source="qahJuwpl1EwZPZ-2IfbC-18" target="qahJuwpl1EwZPZ-2IfbC-99">
          <mxGeometry width="50" height="50" relative="1" as="geometry">
            <mxPoint x="920" y="610" as="sourcePoint" />
            <mxPoint x="970" y="560" as="targetPoint" />
          </mxGeometry>
        </mxCell>
        <mxCell id="qahJuwpl1EwZPZ-2IfbC-109" value="nome" style="ellipse;whiteSpace=wrap;html=1;align=center;" vertex="1" parent="1">
          <mxGeometry x="930" y="550" width="60" height="20" as="geometry" />
        </mxCell>
        <mxCell id="qahJuwpl1EwZPZ-2IfbC-110" value="sobrenome" style="ellipse;whiteSpace=wrap;html=1;align=center;" vertex="1" parent="1">
          <mxGeometry x="1000" y="515" width="70" height="35" as="geometry" />
        </mxCell>
        <mxCell id="qahJuwpl1EwZPZ-2IfbC-111" value="" style="endArrow=none;html=1;rounded=0;entryX=0;entryY=0.25;entryDx=0;entryDy=0;entryPerimeter=0;exitX=1;exitY=0.5;exitDx=0;exitDy=0;" edge="1" parent="1" source="qahJuwpl1EwZPZ-2IfbC-99" target="qahJuwpl1EwZPZ-2IfbC-110">
          <mxGeometry width="50" height="50" relative="1" as="geometry">
            <mxPoint x="970" y="530" as="sourcePoint" />
            <mxPoint x="1070" y="600" as="targetPoint" />
          </mxGeometry>
        </mxCell>
        <mxCell id="qahJuwpl1EwZPZ-2IfbC-112" value="" style="endArrow=none;html=1;rounded=0;exitX=0.5;exitY=1;exitDx=0;exitDy=0;entryX=0.5;entryY=0;entryDx=0;entryDy=0;" edge="1" parent="1" source="qahJuwpl1EwZPZ-2IfbC-99" target="qahJuwpl1EwZPZ-2IfbC-109">
          <mxGeometry width="50" height="50" relative="1" as="geometry">
            <mxPoint x="990" y="660" as="sourcePoint" />
            <mxPoint x="1040" y="610" as="targetPoint" />
          </mxGeometry>
        </mxCell>
        <mxCell id="qahJuwpl1EwZPZ-2IfbC-113" value="localizacao" style="ellipse;whiteSpace=wrap;html=1;align=center;" vertex="1" parent="1">
          <mxGeometry x="920" y="210" width="90" height="40" as="geometry" />
        </mxCell>
        <mxCell id="qahJuwpl1EwZPZ-2IfbC-115" value="capacidade" style="ellipse;whiteSpace=wrap;html=1;align=center;" vertex="1" parent="1">
          <mxGeometry x="920" y="300" width="90" height="30" as="geometry" />
        </mxCell>
        <mxCell id="qahJuwpl1EwZPZ-2IfbC-116" value="tipo_produto_armazenado" style="ellipse;whiteSpace=wrap;html=1;align=center;" vertex="1" parent="1">
          <mxGeometry x="670" y="295" width="150" height="40" as="geometry" />
        </mxCell>
        <mxCell id="qahJuwpl1EwZPZ-2IfbC-117" value="id_armazem" style="ellipse;whiteSpace=wrap;html=1;align=center;fontStyle=4;" vertex="1" parent="1">
          <mxGeometry x="710" y="160" width="120" height="50" as="geometry" />
        </mxCell>
        <mxCell id="qahJuwpl1EwZPZ-2IfbC-118" value="" style="endArrow=none;html=1;rounded=0;exitX=0.5;exitY=1;exitDx=0;exitDy=0;entryX=0.189;entryY=0.025;entryDx=0;entryDy=0;entryPerimeter=0;" edge="1" parent="1" source="qahJuwpl1EwZPZ-2IfbC-117" target="qahJuwpl1EwZPZ-2IfbC-27">
          <mxGeometry width="50" height="50" relative="1" as="geometry">
            <mxPoint x="930" y="660" as="sourcePoint" />
            <mxPoint x="980" y="610" as="targetPoint" />
          </mxGeometry>
        </mxCell>
        <mxCell id="qahJuwpl1EwZPZ-2IfbC-119" value="id_funcionario" style="ellipse;whiteSpace=wrap;html=1;align=center;fontStyle=4;" vertex="1" parent="1">
          <mxGeometry x="802.5" y="520" width="100" height="40" as="geometry" />
        </mxCell>
        <mxCell id="qahJuwpl1EwZPZ-2IfbC-121" value="" style="endArrow=none;html=1;rounded=0;exitX=1;exitY=0.5;exitDx=0;exitDy=0;entryX=0;entryY=0.675;entryDx=0;entryDy=0;entryPerimeter=0;" edge="1" parent="1" source="qahJuwpl1EwZPZ-2IfbC-27" target="qahJuwpl1EwZPZ-2IfbC-113">
          <mxGeometry width="50" height="50" relative="1" as="geometry">
            <mxPoint x="850" y="640" as="sourcePoint" />
            <mxPoint x="900" y="590" as="targetPoint" />
          </mxGeometry>
        </mxCell>
        <mxCell id="qahJuwpl1EwZPZ-2IfbC-122" value="" style="endArrow=none;html=1;rounded=0;exitX=0.922;exitY=1;exitDx=0;exitDy=0;exitPerimeter=0;entryX=0;entryY=0;entryDx=0;entryDy=0;" edge="1" parent="1" source="qahJuwpl1EwZPZ-2IfbC-27" target="qahJuwpl1EwZPZ-2IfbC-115">
          <mxGeometry width="50" height="50" relative="1" as="geometry">
            <mxPoint x="960" y="740" as="sourcePoint" />
            <mxPoint x="1010" y="690" as="targetPoint" />
          </mxGeometry>
        </mxCell>
        <mxCell id="qahJuwpl1EwZPZ-2IfbC-123" value="" style="endArrow=none;html=1;rounded=0;entryX=0.5;entryY=0;entryDx=0;entryDy=0;exitX=0;exitY=1;exitDx=0;exitDy=0;" edge="1" parent="1" source="qahJuwpl1EwZPZ-2IfbC-27" target="qahJuwpl1EwZPZ-2IfbC-116">
          <mxGeometry width="50" height="50" relative="1" as="geometry">
            <mxPoint x="770" y="690" as="sourcePoint" />
            <mxPoint x="820" y="640" as="targetPoint" />
          </mxGeometry>
        </mxCell>
        <mxCell id="qahJuwpl1EwZPZ-2IfbC-127" value="id_produto" style="ellipse;whiteSpace=wrap;html=1;align=center;fontStyle=4;" vertex="1" parent="1">
          <mxGeometry x="376" y="150" width="94" height="40" as="geometry" />
        </mxCell>
        <mxCell id="qahJuwpl1EwZPZ-2IfbC-128" value="nome" style="ellipse;whiteSpace=wrap;html=1;align=center;" vertex="1" parent="1">
          <mxGeometry x="530" y="155" width="60" height="30" as="geometry" />
        </mxCell>
        <mxCell id="qahJuwpl1EwZPZ-2IfbC-130" value="tipo_bebida" style="ellipse;whiteSpace=wrap;html=1;align=center;" vertex="1" parent="1">
          <mxGeometry x="410" y="295" width="70" height="30" as="geometry" />
        </mxCell>
        <mxCell id="qahJuwpl1EwZPZ-2IfbC-131" value="preco" style="ellipse;whiteSpace=wrap;html=1;align=center;" vertex="1" parent="1">
          <mxGeometry x="550" y="305" width="60" height="20" as="geometry" />
        </mxCell>
        <mxCell id="qahJuwpl1EwZPZ-2IfbC-132" value="id_fabrica" style="ellipse;whiteSpace=wrap;html=1;align=center;" vertex="1" parent="1">
          <mxGeometry x="580" y="180" width="70" height="40" as="geometry" />
        </mxCell>
        <mxCell id="qahJuwpl1EwZPZ-2IfbC-133" style="edgeStyle=orthogonalEdgeStyle;rounded=0;orthogonalLoop=1;jettySize=auto;html=1;exitX=1;exitY=1;exitDx=0;exitDy=0;entryX=1;entryY=1;entryDx=0;entryDy=0;" edge="1" parent="1" source="qahJuwpl1EwZPZ-2IfbC-130" target="qahJuwpl1EwZPZ-2IfbC-130">
          <mxGeometry relative="1" as="geometry" />
        </mxCell>
        <mxCell id="qahJuwpl1EwZPZ-2IfbC-135" value="" style="endArrow=none;html=1;rounded=0;exitX=0;exitY=0.75;exitDx=0;exitDy=0;entryX=0.5;entryY=0;entryDx=0;entryDy=0;" edge="1" parent="1" source="qahJuwpl1EwZPZ-2IfbC-33" target="qahJuwpl1EwZPZ-2IfbC-130">
          <mxGeometry width="50" height="50" relative="1" as="geometry">
            <mxPoint x="350" y="390" as="sourcePoint" />
            <mxPoint x="400" y="340" as="targetPoint" />
          </mxGeometry>
        </mxCell>
        <mxCell id="qahJuwpl1EwZPZ-2IfbC-136" value="" style="endArrow=none;html=1;rounded=0;exitX=0.75;exitY=1;exitDx=0;exitDy=0;entryX=0;entryY=0;entryDx=0;entryDy=0;" edge="1" parent="1" source="qahJuwpl1EwZPZ-2IfbC-33" target="qahJuwpl1EwZPZ-2IfbC-131">
          <mxGeometry width="50" height="50" relative="1" as="geometry">
            <mxPoint x="600" y="320" as="sourcePoint" />
            <mxPoint x="650" y="270" as="targetPoint" />
          </mxGeometry>
        </mxCell>
        <mxCell id="qahJuwpl1EwZPZ-2IfbC-137" value="" style="endArrow=none;html=1;rounded=0;exitX=0.745;exitY=1.025;exitDx=0;exitDy=0;exitPerimeter=0;entryX=0.078;entryY=-0.1;entryDx=0;entryDy=0;entryPerimeter=0;" edge="1" parent="1" source="qahJuwpl1EwZPZ-2IfbC-127" target="qahJuwpl1EwZPZ-2IfbC-33">
          <mxGeometry width="50" height="50" relative="1" as="geometry">
            <mxPoint x="330" y="430" as="sourcePoint" />
            <mxPoint x="380" y="380" as="targetPoint" />
          </mxGeometry>
        </mxCell>
        <mxCell id="qahJuwpl1EwZPZ-2IfbC-138" value="" style="endArrow=none;html=1;rounded=0;exitX=0.5;exitY=1;exitDx=0;exitDy=0;entryX=0.5;entryY=0;entryDx=0;entryDy=0;" edge="1" parent="1" source="qahJuwpl1EwZPZ-2IfbC-128" target="qahJuwpl1EwZPZ-2IfbC-33">
          <mxGeometry width="50" height="50" relative="1" as="geometry">
            <mxPoint x="330" y="470" as="sourcePoint" />
            <mxPoint x="380" y="420" as="targetPoint" />
          </mxGeometry>
        </mxCell>
        <mxCell id="qahJuwpl1EwZPZ-2IfbC-140" value="" style="endArrow=none;html=1;rounded=0;exitX=0.5;exitY=1;exitDx=0;exitDy=0;entryX=1;entryY=0.25;entryDx=0;entryDy=0;" edge="1" parent="1" source="qahJuwpl1EwZPZ-2IfbC-132" target="qahJuwpl1EwZPZ-2IfbC-33">
          <mxGeometry width="50" height="50" relative="1" as="geometry">
            <mxPoint x="300" y="510" as="sourcePoint" />
            <mxPoint x="350" y="460" as="targetPoint" />
          </mxGeometry>
        </mxCell>
      </root>
    </mxGraphModel>
  </diagram>
</mxfile>
